<svg xmlns="http://www.w3.org/2000/svg" width="159.516" height="203.082" viewBox="0 0 159.516 203.082">
    <g id="Group_2" data-name="Group 2" transform="translate(-199 -78)">
        <path id="Path_18" data-name="Path 18"
            d="M105.449,177.73C99.023,162.266,94.3,149.09,94.957,136.723c.324-.68.656-1.4,1.012-2.141a6.9,6.9,0,0,1,2.512-2.9c29.109-12.336,29.02-63.047-.133-75.277a6.954,6.954,0,0,1-2.523-2.9c-1.559-3.219-2.66-6.02-4.785-7.082a9.235,9.235,0,0,0-6.613.012c-2.121,1.07-3.215,3.875-4.766,7.1a6.919,6.919,0,0,1-2.508,2.91c-29.109,12.328-29.02,63.043.129,75.273a6.863,6.863,0,0,1,2.523,2.895c.3.613.578,1.211.852,1.789.867,14.266-5.484,29.594-13.387,48.258C51.531,189.711,32.93,196.082,0,198.547v2.07c83.02-6.211,74.977-25.336,159.516,2.469V189.1c-24.152-7.941-40.746-11.078-54.066-11.371"
            transform="translate(199 77.996)" fill="#ebc900" fill-rule="evenodd" />
        <path id="Path_20" data-name="Path 20"
            d="M141.086,0C139.172.9,131.512,7.8,123.723,11.242s-13.664,7.531-16.73,12.641-5.371,15.078-2.945,18.523c.258,1.914-4.59,6.758-4.59,6.758a1.7,1.7,0,0,0-.539,1.371c.031.93,1.746,3.949,1.746,3.949s1.719-5.824,4.125-8.629A118,118,0,0,1,116.7,30.039c7.73-9.016,14.242-11.3,19.074-18.871-4.992,8.855-10.629,9.895-18.711,19.414C113.4,34.891,109,41.1,106.66,44.465c.027-.008.055-.02.078-.023,4.594,3.063,16.984-.77,23.113-6.641s9.449-13.789,10.723-21.2,1.277-12.766.512-16.6"
            transform="translate(199 77.996)" fill="#78a22e" />
    </g>
</svg>