<svg xmlns="http://www.w3.org/2000/svg" width="280.989" height="302.989" viewBox="0 0 280.989 302.989">
  <g id="Group_8" data-name="Group 8" transform="translate(-145.001 -461)">
    <g id="Group_3" data-name="Group 3" transform="translate(0 383)">
      <path id="Path_18" data-name="Path 18"
        d="M105.449,177.73C99.023,162.266,94.3,149.09,94.957,136.723c.324-.68.656-1.4,1.012-2.141a6.9,6.9,0,0,1,2.512-2.9c29.109-12.336,29.02-63.047-.133-75.277a6.954,6.954,0,0,1-2.523-2.9c-1.559-3.219-2.66-6.02-4.785-7.082a9.235,9.235,0,0,0-6.613.012c-2.121,1.07-3.215,3.875-4.766,7.1a6.919,6.919,0,0,1-2.508,2.91c-29.109,12.328-29.02,63.043.129,75.273a6.863,6.863,0,0,1,2.523,2.895c.3.613.578,1.211.852,1.789.867,14.266-5.484,29.594-13.387,48.258C51.531,189.711,32.93,196.082,0,198.547v2.07c83.02-6.211,74.977-25.336,159.516,2.469V189.1c-24.152-7.941-40.746-11.078-54.066-11.371"
        transform="translate(199 77.996)" fill="#fffdef" fill-rule="evenodd" />
      <path id="Path_20" data-name="Path 20"
        d="M141.086,0C139.172.9,131.512,7.8,123.723,11.242s-13.664,7.531-16.73,12.641-5.371,15.078-2.945,18.523c.258,1.914-4.59,6.758-4.59,6.758a1.7,1.7,0,0,0-.539,1.371c.031.93,1.746,3.949,1.746,3.949s1.719-5.824,4.125-8.629A118,118,0,0,1,116.7,30.039c7.73-9.016,14.242-11.3,19.074-18.871-4.992,8.855-10.629,9.895-18.711,19.414C113.4,34.891,109,41.1,106.66,44.465c.027-.008.055-.02.078-.023,4.594,3.063,16.984-.77,23.113-6.641s9.449-13.789,10.723-21.2,1.277-12.766.512-16.6"
        transform="translate(199 77.996)" fill="#fffdef" />
    </g>
    <g id="Group_4" data-name="Group 4" transform="translate(-261 559)">
      <path id="Path_1" data-name="Path 1"
        d="M4.212,247.019H15.2a1.948,1.948,0,1,1,0,3.856H2.1a2.094,2.094,0,0,1-2.1-2.1V211.59c0-1.753.76-2.692,2.1-2.692s2.109.938,2.109,2.692v35.429"
        transform="translate(406.993 -76.004)" fill="#fffdef" />
      <path id="Path_2" data-name="Path 2"
        d="M35.2,229.161c-.171-5.2-3.1-10.753-8.766-10.753s-8.6,5.554-8.766,10.753Zm-17.533,3.507c.171,5.445,3.856,10.527,9.232,10.527,6.664,0,8.424-4.794,10.41-4.794,1.164,0,1.986.411,1.986,2.048,0,1.87-4.849,6.253-12.1,6.253-9.938,0-14.088-8.068-14.088-15.9s4.616-15.9,13.382-15.9,13.273,7.362,13.273,15.2c0,1.11-.349,2.568-2.863,2.568H17.667"
        transform="translate(416.865 -71.481)" fill="#fffdef" />
      <path id="Path_4" data-name="Path 4"
        d="M55.543,244.016c0,1.753-.76,2.685-2.1,2.685s-2.1-.931-2.1-2.685V226.881c0-6.835-3.746-8.123-7.02-8.123-3.39,0-7.13,2.808-7.13,8.123v17.136c0,1.753-.76,2.685-2.109,2.685s-2.1-.931-2.1-2.685V217.587c0-1.753.76-2.685,2.1-2.685s2.109.931,2.109,2.685v1.52H37.3a9.446,9.446,0,0,1,8.129-4.205,8.677,8.677,0,0,1,8.177,5.438,10.847,10.847,0,0,1,9.123-5.438c5.5,0,11.17,3.678,11.17,11.1v18.012c0,1.753-.76,2.685-2.109,2.685s-2.1-.931-2.1-2.685V226.881c0-6.835-3.746-8.123-7.02-8.123-3.39,0-7.13,2.808-7.13,8.123v17.136"
        transform="translate(431.833 -71.481)" fill="#fffdef" />
      <path id="Path_6" data-name="Path 6"
        d="M74.874,243.195c6.547,0,8.828-6.725,8.828-12.389s-2.281-12.4-8.828-12.4-8.828,6.719-8.828,12.4S68.326,243.195,74.874,243.195Zm0,3.507c-8.944,0-13.389-7.13-13.389-15.9,0-7.835,4.267-15.9,13.389-15.9,9.177,0,13.389,8.068,13.389,15.9,0,8.766-4.445,15.9-13.389,15.9"
        transform="translate(453.308 -71.481)" fill="#fffdef" />
      <path id="Path_8" data-name="Path 8"
        d="M86.138,244.016c0,1.753-.76,2.685-2.109,2.685s-2.1-.931-2.1-2.685V217.587c0-1.753.76-2.685,2.1-2.685s2.109.931,2.109,2.685v1.52h.116a9.442,9.442,0,0,1,8.123-4.205c5.493,0,11.17,3.678,11.17,11.1v18.012c0,1.753-.76,2.685-2.109,2.685s-2.1-.931-2.1-2.685V225.888c0-4.322-2.924-7.13-7.6-7.13-3.917,0-7.6,2.808-7.6,8.123v17.136"
        transform="translate(468.706 -71.481)" fill="#fffdef" />
      <path id="Path_10" data-name="Path 10"
        d="M105.716,217.165H99.346a3.778,3.778,0,0,1-3.979-4.034,3.921,3.921,0,0,1,3.979-4.034h21.512a3.921,3.921,0,0,1,3.979,4.034,3.778,3.778,0,0,1-3.979,4.034h-6.376v29.354a4.386,4.386,0,1,1-8.766,0V217.165"
        transform="translate(478.831 -75.854)" fill="#78a22e" />
      <path id="Path_12" data-name="Path 12"
        d="M111.68,219.107a4.13,4.13,0,0,1,4.328-4.205c2.219,0,4.089.815,4.089,3.507h.116c1.582-2.342,3.274-3.507,5.9-3.507,2.048,0,4.1,1.459,4.1,4.5,0,2.746-2.514,2.924-5.027,4.1s-5.089,2.274-5.089,5.609v12.917c0,2.808-1.753,4.678-4.212,4.678s-4.205-1.87-4.205-4.678V219.107"
        transform="translate(491.119 -71.481)" fill="#78a22e" />
      <path id="Path_14" data-name="Path 14"
        d="M144.69,228.15c-.466-3.685-2.8-6.431-6.719-6.431-3.746,0-6.253,2.863-6.664,6.431Zm-13.211,5.609c.589,4.15,4.034,6.082,7.951,6.082,4.328,0,7.308-3.39,9.533-3.39a3.738,3.738,0,0,1,3.445,3.623c0,3.623-7.479,7.13-13.739,7.13-9.472,0-15.78-6.9-15.78-16.19,0-8.534,6.2-16.314,15.081-16.314,9.116,0,15.143,8.308,15.143,15.321,0,2.513-1.116,3.739-3.685,3.739H131.479"
        transform="translate(499.564 -71.634)" fill="#78a22e" />
      <path id="Path_16" data-name="Path 16"
        d="M164.267,228.15c-.466-3.685-2.808-6.431-6.725-6.431-3.739,0-6.253,2.863-6.664,6.431Zm-13.211,5.609c.582,4.15,4.034,6.082,7.951,6.082,4.322,0,7.308-3.39,9.527-3.39a3.739,3.739,0,0,1,3.452,3.623c0,3.623-7.486,7.13-13.739,7.13-9.472,0-15.786-6.9-15.786-16.19,0-8.534,6.2-16.314,15.081-16.314,9.123,0,15.143,8.308,15.143,15.321,0,2.513-1.11,3.739-3.678,3.739H151.056"
        transform="translate(514.306 -71.634)" fill="#78a22e" />
    </g>
    <path id="Path_24" data-name="Path 24"
      d="M12.65-20.564v13.4H10.467V-13.18h-6.3v6.017H2v-13.4H4.165v5.619h6.3v-5.619Zm16.419-.171a6.6,6.6,0,0,1,3.369.873,6.24,6.24,0,0,1,2.373,2.439,7.207,7.207,0,0,1,.864,3.54,7.207,7.207,0,0,1-.864,3.54,6.308,6.308,0,0,1-2.373,2.449,6.549,6.549,0,0,1-3.369.883,6.586,6.586,0,0,1-3.388-.883A6.376,6.376,0,0,1,23.3-10.342a7.144,7.144,0,0,1-.873-3.54,7.144,7.144,0,0,1,.873-3.54,6.307,6.307,0,0,1,2.382-2.439A6.641,6.641,0,0,1,29.069-20.735Zm0,2.012a4.464,4.464,0,0,0-2.3.588,4.011,4.011,0,0,0-1.566,1.689,5.58,5.58,0,0,0-.56,2.563,5.58,5.58,0,0,0,.56,2.563,4.011,4.011,0,0,0,1.566,1.689,4.464,4.464,0,0,0,2.3.588,4.376,4.376,0,0,0,2.268-.588,4.03,4.03,0,0,0,1.557-1.689,5.58,5.58,0,0,0,.56-2.563,5.58,5.58,0,0,0-.56-2.563,4.03,4.03,0,0,0-1.557-1.689A4.376,4.376,0,0,0,29.069-18.723Zm25-1.841v1.746H50.329V-7.163H48.146V-18.818h-3.72v-1.746Zm11.37,1.746v4.062h4.935v1.67H65.439v4.157h5.5v1.765H63.275v-13.4h7.669v1.746ZM82.807-8.852h4.632v1.689h-6.8v-13.4h2.164Zm22.721-1.879a3.678,3.678,0,0,1-.475,1.832,3.45,3.45,0,0,1-1.443,1.357,5.021,5.021,0,0,1-2.373.513,5.935,5.935,0,0,1-2.449-.484,4.261,4.261,0,0,1-1.727-1.357,3.853,3.853,0,0,1-.74-2.012h2.316a2.376,2.376,0,0,0,.75,1.5,2.434,2.434,0,0,0,1.756.626,2.088,2.088,0,0,0,1.528-.531,1.833,1.833,0,0,0,.541-1.367,1.758,1.758,0,0,0-.4-1.186,2.8,2.8,0,0,0-.987-.731q-.588-.266-1.613-.607a14.062,14.062,0,0,1-2.041-.8,3.711,3.711,0,0,1-1.338-1.158,3.319,3.319,0,0,1-.55-1.993,3.4,3.4,0,0,1,.531-1.9,3.455,3.455,0,0,1,1.519-1.262,5.48,5.48,0,0,1,2.278-.446,4.985,4.985,0,0,1,3.255.987,3.719,3.719,0,0,1,1.376,2.582h-2.335a2.276,2.276,0,0,0-.712-1.3,2.23,2.23,0,0,0-1.585-.541,2.189,2.189,0,0,0-1.462.465A1.654,1.654,0,0,0,98.6-17.2a1.682,1.682,0,0,0,.38,1.129,2.639,2.639,0,0,0,.959.7q.579.256,1.585.6a13.925,13.925,0,0,1,2.079.807,3.765,3.765,0,0,1,1.367,1.186A3.434,3.434,0,0,1,105.528-10.732ZM136.7-7.163l-2.506-2.828a3.348,3.348,0,0,1-.19.664,2.889,2.889,0,0,1-1.148,1.661,3.493,3.493,0,0,1-2.1.636,4.412,4.412,0,0,1-2.164-.513,3.631,3.631,0,0,1-1.443-1.424,4.185,4.185,0,0,1-.513-2.088,4.342,4.342,0,0,1,.465-2.069,3.243,3.243,0,0,1,1.262-1.329,3.5,3.5,0,0,1,1.765-.456h.133l-.247-.342a5.144,5.144,0,0,1-.7-1.129,3.1,3.1,0,0,1-.247-1.262,2.937,2.937,0,0,1,.408-1.5,2.965,2.965,0,0,1,1.215-1.129,4.066,4.066,0,0,1,1.927-.427,3.685,3.685,0,0,1,2.553.8,3.5,3.5,0,0,1,1.11,2.012,4.247,4.247,0,0,1,.133,1.348h-2.05v-.209a3.274,3.274,0,0,0-.019-.418,1.778,1.778,0,0,0-.465-1.253,1.635,1.635,0,0,0-1.224-.456,1.507,1.507,0,0,0-1.129.418,1.41,1.41,0,0,0-.408,1.025,1.894,1.894,0,0,0,.2.892,5.6,5.6,0,0,0,.617.892l6.985,8.485Zm-5.922-1.708A2.087,2.087,0,0,0,132.3-9.46a2.038,2.038,0,0,0,.6-1.519,2.129,2.129,0,0,0-.332-1.167,2.35,2.35,0,0,0-.873-.816,2.333,2.333,0,0,0-1.129-.294,2.021,2.021,0,0,0-1.481.56,2.123,2.123,0,0,0-.569,1.585,2.112,2.112,0,0,0,.655,1.642A2.292,2.292,0,0,0,130.774-8.871Zm36.218,1.708-3.341-5.353h-1.538v5.353H159.95v-13.4h4.727a4.894,4.894,0,0,1,3.483,1.12,3.882,3.882,0,0,1,1.186,2.961,3.771,3.771,0,0,1-.883,2.582,4.2,4.2,0,0,1-2.553,1.291l3.512,5.448Zm-4.878-6.89h2.392q2.62,0,2.62-2.316a2.282,2.282,0,0,0-.636-1.718,2.76,2.76,0,0,0-1.984-.617h-2.392Zm18.944-4.764v4.062h4.935v1.67h-4.935v4.157h5.5v1.765h-7.669v-13.4h7.669v1.746Zm24.012,8.086A3.678,3.678,0,0,1,204.6-8.9a3.45,3.45,0,0,1-1.443,1.357,5.021,5.021,0,0,1-2.373.513,5.936,5.936,0,0,1-2.449-.484A4.261,4.261,0,0,1,196.6-8.871a3.853,3.853,0,0,1-.74-2.012h2.316a2.376,2.376,0,0,0,.75,1.5,2.434,2.434,0,0,0,1.756.626,2.088,2.088,0,0,0,1.528-.531,1.833,1.833,0,0,0,.541-1.367,1.759,1.759,0,0,0-.4-1.186,2.8,2.8,0,0,0-.987-.731q-.588-.266-1.613-.607a14.062,14.062,0,0,1-2.041-.8,3.711,3.711,0,0,1-1.338-1.158,3.319,3.319,0,0,1-.55-1.993,3.4,3.4,0,0,1,.531-1.9,3.455,3.455,0,0,1,1.519-1.262,5.48,5.48,0,0,1,2.278-.446,4.985,4.985,0,0,1,3.255.987,3.72,3.72,0,0,1,1.376,2.582H202.45a2.276,2.276,0,0,0-.712-1.3,2.23,2.23,0,0,0-1.585-.541,2.189,2.189,0,0,0-1.462.465,1.654,1.654,0,0,0-.55,1.338,1.682,1.682,0,0,0,.38,1.129,2.639,2.639,0,0,0,.959.7q.579.256,1.585.6a13.925,13.925,0,0,1,2.078.807,3.765,3.765,0,0,1,1.367,1.186A3.434,3.434,0,0,1,205.07-10.732Zm15.964-10a6.6,6.6,0,0,1,3.369.873,6.24,6.24,0,0,1,2.373,2.439,7.207,7.207,0,0,1,.864,3.54,7.207,7.207,0,0,1-.864,3.54A6.307,6.307,0,0,1,224.4-7.894a6.55,6.55,0,0,1-3.369.883,6.586,6.586,0,0,1-3.388-.883,6.376,6.376,0,0,1-2.382-2.449,7.144,7.144,0,0,1-.873-3.54,7.144,7.144,0,0,1,.873-3.54,6.307,6.307,0,0,1,2.382-2.439A6.641,6.641,0,0,1,221.033-20.735Zm0,2.012a4.464,4.464,0,0,0-2.3.588,4.011,4.011,0,0,0-1.566,1.689,5.58,5.58,0,0,0-.56,2.563,5.58,5.58,0,0,0,.56,2.563,4.011,4.011,0,0,0,1.566,1.689,4.464,4.464,0,0,0,2.3.588,4.376,4.376,0,0,0,2.268-.588,4.03,4.03,0,0,0,1.557-1.689,5.58,5.58,0,0,0,.56-2.563,5.58,5.58,0,0,0-.56-2.563,4.03,4.03,0,0,0-1.557-1.689A4.376,4.376,0,0,0,221.033-18.723Zm23.424,11.56-3.341-5.353h-1.538v5.353h-2.164v-13.4h4.727a4.894,4.894,0,0,1,3.483,1.12,3.882,3.882,0,0,1,1.186,2.961,3.771,3.771,0,0,1-.883,2.582,4.2,4.2,0,0,1-2.553,1.291l3.512,5.448Zm-4.878-6.89h2.392q2.619,0,2.619-2.316a2.282,2.282,0,0,0-.636-1.718,2.76,2.76,0,0,0-1.984-.617h-2.392Zm25.4-6.511v1.746h-3.739V-7.163h-2.183V-18.818h-3.72v-1.746Zm18.014,9.833a3.678,3.678,0,0,1-.475,1.832,3.45,3.45,0,0,1-1.443,1.357,5.021,5.021,0,0,1-2.373.513,5.935,5.935,0,0,1-2.449-.484,4.261,4.261,0,0,1-1.727-1.357,3.853,3.853,0,0,1-.74-2.012H276.1a2.376,2.376,0,0,0,.75,1.5,2.434,2.434,0,0,0,1.756.626,2.088,2.088,0,0,0,1.528-.531,1.833,1.833,0,0,0,.541-1.367,1.759,1.759,0,0,0-.4-1.186,2.794,2.794,0,0,0-.987-.731q-.588-.266-1.613-.607a14.063,14.063,0,0,1-2.041-.8,3.712,3.712,0,0,1-1.338-1.158,3.319,3.319,0,0,1-.55-1.993,3.4,3.4,0,0,1,.531-1.9,3.455,3.455,0,0,1,1.519-1.262,5.481,5.481,0,0,1,2.278-.446,4.985,4.985,0,0,1,3.255.987,3.72,3.72,0,0,1,1.376,2.582h-2.335a2.277,2.277,0,0,0-.712-1.3,2.23,2.23,0,0,0-1.585-.541,2.189,2.189,0,0,0-1.462.465,1.654,1.654,0,0,0-.55,1.338,1.682,1.682,0,0,0,.38,1.129,2.639,2.639,0,0,0,.959.7q.579.256,1.585.6a13.923,13.923,0,0,1,2.078.807,3.766,3.766,0,0,1,1.367,1.186A3.434,3.434,0,0,1,282.99-10.732Z"
      transform="translate(143 771)" fill="#fffdef" />
  </g>
</svg>