<svg xmlns="http://www.w3.org/2000/svg" width="425.6" height="108.062" viewBox="0 0 425.6 108.062">
    <g id="Group_7" data-name="Group 7" transform="translate(-407.042 -132.895)">
        <path id="Path_1" data-name="Path 1"
            d="M6.4,266.842H23.1a2.961,2.961,0,1,1,0,5.861H3.2a3.183,3.183,0,0,1-3.2-3.2V212.99c0-2.665,1.156-4.091,3.2-4.091S6.4,210.325,6.4,212.99v53.852"
            transform="translate(407.042 -76.004)" fill="#ebc900" />
        <path id="Path_2" data-name="Path 2"
            d="M46.689,236.576c-.26-7.9-4.705-16.344-13.325-16.344S20.3,228.675,20.039,236.576Zm-26.65,5.33c.26,8.276,5.861,16,14.033,16,10.129,0,12.8-7.287,15.823-7.287,1.77,0,3.019.625,3.019,3.113,0,2.842-7.37,9.5-18.395,9.5-15.105,0-21.414-12.263-21.414-24.162S20.122,214.9,33.447,214.9,53.622,226.093,53.622,238c0,1.686-.531,3.9-4.351,3.9H20.039"
            transform="translate(428.863 -66.007)" fill="#ebc900" />
        <path id="Path_4" data-name="Path 4"
            d="M67.278,259.156c0,2.665-1.156,4.081-3.2,4.081s-3.2-1.416-3.2-4.081V233.11c0-10.389-5.694-12.346-10.67-12.346-5.153,0-10.837,4.268-10.837,12.346v26.046c0,2.665-1.156,4.081-3.206,4.081s-3.2-1.416-3.2-4.081V218.983c0-2.665,1.156-4.081,3.2-4.081s3.206,1.416,3.206,4.081v2.311h.177A14.358,14.358,0,0,1,51.913,214.9a13.189,13.189,0,0,1,12.43,8.266A16.488,16.488,0,0,1,78.209,214.9c8.359,0,16.979,5.59,16.979,16.875v27.379c0,2.665-1.156,4.081-3.206,4.081s-3.2-1.416-3.2-4.081V233.11c0-10.389-5.694-12.346-10.67-12.346-5.153,0-10.837,4.268-10.837,12.346v26.046"
            transform="translate(461.948 -66.007)" fill="#ebc900" />
        <path id="Path_6" data-name="Path 6"
            d="M81.836,257.907c9.952,0,13.419-10.223,13.419-18.832,0-8.63-3.467-18.842-13.419-18.842s-13.419,10.212-13.419,18.842C68.418,247.684,71.884,257.907,81.836,257.907Zm0,5.33c-13.6,0-20.352-10.837-20.352-24.162,0-11.909,6.486-24.172,20.352-24.172,13.95,0,20.352,12.263,20.352,24.172,0,13.325-6.756,24.162-20.352,24.162"
            transform="translate(509.414 -66.007)" fill="#ebc900" />
        <path id="Path_8" data-name="Path 8"
            d="M88.328,259.156c0,2.665-1.156,4.081-3.206,4.081s-3.2-1.416-3.2-4.081V218.983c0-2.665,1.156-4.081,3.2-4.081s3.206,1.416,3.206,4.081v2.311h.177a14.352,14.352,0,0,1,12.346-6.392c8.349,0,16.979,5.59,16.979,16.875v27.379c0,2.665-1.156,4.081-3.206,4.081s-3.2-1.416-3.2-4.081V231.6c0-6.569-4.445-10.837-11.555-10.837-5.955,0-11.545,4.268-11.545,12.346v26.046"
            transform="translate(543.449 -66.007)" fill="#ebc900" />
        <path id="Path_10" data-name="Path 10"
            d="M111.1,221.361h-9.681c-4.268,0-6.048-3.113-6.048-6.132a5.96,5.96,0,0,1,6.048-6.132h32.7a5.96,5.96,0,0,1,6.048,6.132c0,3.019-1.78,6.132-6.048,6.132h-9.692v44.618c0,4.435-2.842,6.923-6.663,6.923s-6.663-2.488-6.663-6.923V221.361"
            transform="translate(565.829 -75.672)" fill="#78a22e" />
        <path id="Path_12" data-name="Path 12"
            d="M111.68,221.294a6.278,6.278,0,0,1,6.579-6.392c3.373,0,6.215,1.239,6.215,5.33h.177c2.4-3.56,4.976-5.33,8.974-5.33,3.113,0,6.225,2.217,6.225,6.839,0,4.175-3.821,4.445-7.641,6.225s-7.735,3.456-7.735,8.526v19.634c0,4.268-2.665,7.11-6.4,7.11s-6.392-2.842-6.392-7.11V221.294"
            transform="translate(592.99 -66.007)" fill="#78a22e" />
        <path id="Path_14" data-name="Path 14"
            d="M156.026,235.145c-.708-5.6-4.258-9.775-10.212-9.775-5.694,0-9.5,4.351-10.129,9.775Zm-20.081,8.526c.9,6.309,6.132,9.244,12.086,9.244,6.579,0,11.108-5.153,14.491-5.153,2.748,0,5.236,2.759,5.236,5.507,0,5.507-11.368,10.837-20.883,10.837-14.4,0-23.985-10.483-23.985-24.61,0-12.971,9.421-24.8,22.923-24.8,13.856,0,23.017,12.628,23.017,23.288,0,3.821-1.7,5.684-5.6,5.684H135.945"
            transform="translate(611.656 -66.346)" fill="#78a22e" />
        <path id="Path_16" data-name="Path 16"
            d="M175.607,235.145c-.708-5.6-4.268-9.775-10.223-9.775-5.684,0-9.5,4.351-10.129,9.775Zm-20.081,8.526c.885,6.309,6.132,9.244,12.086,9.244,6.569,0,11.108-5.153,14.481-5.153a5.683,5.683,0,0,1,5.247,5.507c0,5.507-11.378,10.837-20.883,10.837-14.4,0-24-10.483-24-24.61,0-12.971,9.421-24.8,22.923-24.8,13.866,0,23.017,12.628,23.017,23.288,0,3.821-1.686,5.684-5.59,5.684H155.526"
            transform="translate(644.241 -66.346)" fill="#78a22e" />
        <path id="Path_23" data-name="Path 23"
            d="M18.056-20.477v20.2H14.765V-9.345h-9.5V-.273H2v-20.2H5.264v8.471h9.5v-8.471Zm24.755-.258a9.958,9.958,0,0,1,5.08,1.316,9.408,9.408,0,0,1,3.577,3.677,10.866,10.866,0,0,1,1.3,5.337,10.866,10.866,0,0,1-1.3,5.337,9.51,9.51,0,0,1-3.577,3.692,9.874,9.874,0,0,1-5.08,1.331A9.929,9.929,0,0,1,37.7-1.375a9.612,9.612,0,0,1-3.592-3.692A10.771,10.771,0,0,1,32.795-10.4a10.771,10.771,0,0,1,1.316-5.337A9.509,9.509,0,0,1,37.7-19.419,10.013,10.013,0,0,1,42.811-20.735Zm0,3.034a6.73,6.73,0,0,0-3.463.887,6.047,6.047,0,0,0-2.361,2.547,8.413,8.413,0,0,0-.844,3.864,8.413,8.413,0,0,0,.844,3.864,6.047,6.047,0,0,0,2.361,2.547,6.73,6.73,0,0,0,3.463.887,6.6,6.6,0,0,0,3.42-.887A6.076,6.076,0,0,0,48.578-6.54a8.413,8.413,0,0,0,.844-3.864,8.413,8.413,0,0,0-.844-3.864,6.076,6.076,0,0,0-2.347-2.547A6.6,6.6,0,0,0,42.811-17.7ZM80.5-20.477v2.633H74.864V-.273H71.573V-17.845H65.964v-2.633Zm17.143,2.633v6.124h7.441V-9.2H97.644v6.267h8.3V-.273H94.382v-20.2h11.562v2.633ZM123.83-2.82h6.983V-.273H120.568v-20.2h3.263Zm34.256-2.833a5.545,5.545,0,0,1-.715,2.762A5.2,5.2,0,0,1,155.2-.845a7.57,7.57,0,0,1-3.577.773,8.948,8.948,0,0,1-3.692-.73,6.424,6.424,0,0,1-2.6-2.046,5.809,5.809,0,0,1-1.116-3.034H147.7a3.582,3.582,0,0,0,1.13,2.261,3.67,3.67,0,0,0,2.647.944,3.148,3.148,0,0,0,2.3-.8,2.763,2.763,0,0,0,.816-2.061,2.651,2.651,0,0,0-.6-1.789,4.214,4.214,0,0,0-1.488-1.1q-.887-.4-2.433-.916a21.2,21.2,0,0,1-3.077-1.2,5.6,5.6,0,0,1-2.018-1.746,5,5,0,0,1-.83-3,5.126,5.126,0,0,1,.8-2.862,5.209,5.209,0,0,1,2.289-1.9,8.263,8.263,0,0,1,3.434-.673,7.516,7.516,0,0,1,4.908,1.488,5.608,5.608,0,0,1,2.075,3.892h-3.52a3.432,3.432,0,0,0-1.073-1.96,3.361,3.361,0,0,0-2.39-.816,3.3,3.3,0,0,0-2.2.7,2.494,2.494,0,0,0-.83,2.018,2.535,2.535,0,0,0,.572,1.7,3.979,3.979,0,0,0,1.445,1.059q.873.386,2.39.9a21,21,0,0,1,3.134,1.216,5.677,5.677,0,0,1,2.061,1.789A5.177,5.177,0,0,1,158.087-5.653Zm46.992,5.38L201.3-4.537a5.047,5.047,0,0,1-.286,1,4.355,4.355,0,0,1-1.731,2.5,5.266,5.266,0,0,1-3.162.959,6.652,6.652,0,0,1-3.263-.773,5.475,5.475,0,0,1-2.175-2.146,6.31,6.31,0,0,1-.773-3.148,6.547,6.547,0,0,1,.7-3.119,4.889,4.889,0,0,1,1.9-2,5.269,5.269,0,0,1,2.662-.687h.2L195-12.464a7.756,7.756,0,0,1-1.059-1.7,4.672,4.672,0,0,1-.372-1.9,4.427,4.427,0,0,1,.615-2.261,4.47,4.47,0,0,1,1.832-1.7,6.13,6.13,0,0,1,2.9-.644,5.556,5.556,0,0,1,3.849,1.2,5.282,5.282,0,0,1,1.674,3.034,6.4,6.4,0,0,1,.2,2.032h-3.091v-.315a4.935,4.935,0,0,0-.029-.63,2.68,2.68,0,0,0-.7-1.889,2.465,2.465,0,0,0-1.846-.687,2.271,2.271,0,0,0-1.7.63,2.126,2.126,0,0,0-.615,1.545,2.855,2.855,0,0,0,.3,1.345,8.451,8.451,0,0,0,.93,1.345L208.427-.273Zm-8.929-2.576a3.147,3.147,0,0,0,2.3-.887,3.072,3.072,0,0,0,.9-2.289,3.21,3.21,0,0,0-.5-1.76,3.544,3.544,0,0,0-1.316-1.231,3.517,3.517,0,0,0-1.7-.444,3.048,3.048,0,0,0-2.232.844,3.2,3.2,0,0,0-.859,2.39,3.184,3.184,0,0,0,.987,2.476A3.455,3.455,0,0,0,196.149-2.848Zm54.6,2.576-5.037-8.07H243.4v8.07h-3.263v-20.2h7.126a7.379,7.379,0,0,1,5.252,1.688,5.853,5.853,0,0,1,1.789,4.464,5.685,5.685,0,0,1-1.331,3.892,6.338,6.338,0,0,1-3.849,1.946l5.294,8.214ZM243.4-10.661H247q3.949,0,3.949-3.491a3.441,3.441,0,0,0-.959-2.59,4.161,4.161,0,0,0-2.991-.93H243.4Zm28.561-7.183v6.124H279.4V-9.2H271.96v6.267h8.3V-.273H268.7v-20.2h11.562v2.633Zm36.2,12.192a5.545,5.545,0,0,1-.715,2.762,5.2,5.2,0,0,1-2.175,2.046,7.57,7.57,0,0,1-3.577.773A8.949,8.949,0,0,1,298-.8a6.424,6.424,0,0,1-2.6-2.046,5.809,5.809,0,0,1-1.116-3.034h3.491a3.582,3.582,0,0,0,1.13,2.261,3.67,3.67,0,0,0,2.647.944,3.148,3.148,0,0,0,2.3-.8,2.763,2.763,0,0,0,.816-2.061,2.651,2.651,0,0,0-.6-1.789,4.214,4.214,0,0,0-1.488-1.1q-.887-.4-2.433-.916a21.2,21.2,0,0,1-3.076-1.2,5.6,5.6,0,0,1-2.018-1.746,5,5,0,0,1-.83-3,5.127,5.127,0,0,1,.8-2.862,5.209,5.209,0,0,1,2.289-1.9,8.263,8.263,0,0,1,3.434-.673,7.516,7.516,0,0,1,4.908,1.488,5.608,5.608,0,0,1,2.075,3.892h-3.52a3.432,3.432,0,0,0-1.073-1.96,3.361,3.361,0,0,0-2.39-.816,3.3,3.3,0,0,0-2.2.7,2.494,2.494,0,0,0-.83,2.018,2.535,2.535,0,0,0,.572,1.7,3.979,3.979,0,0,0,1.445,1.059q.873.386,2.39.9a21,21,0,0,1,3.134,1.216,5.677,5.677,0,0,1,2.061,1.789A5.177,5.177,0,0,1,308.163-5.653Zm24.068-15.082a9.958,9.958,0,0,1,5.08,1.316,9.408,9.408,0,0,1,3.577,3.677,10.866,10.866,0,0,1,1.3,5.337,10.866,10.866,0,0,1-1.3,5.337,9.51,9.51,0,0,1-3.577,3.692,9.875,9.875,0,0,1-5.08,1.331,9.929,9.929,0,0,1-5.108-1.331,9.613,9.613,0,0,1-3.592-3.692,10.772,10.772,0,0,1-1.316-5.337,10.772,10.772,0,0,1,1.316-5.337,9.509,9.509,0,0,1,3.592-3.677A10.013,10.013,0,0,1,332.231-20.735Zm0,3.034a6.73,6.73,0,0,0-3.463.887,6.047,6.047,0,0,0-2.361,2.547,8.413,8.413,0,0,0-.844,3.864,8.413,8.413,0,0,0,.844,3.864,6.047,6.047,0,0,0,2.361,2.547,6.73,6.73,0,0,0,3.463.887,6.6,6.6,0,0,0,3.42-.887A6.076,6.076,0,0,0,338-6.54a8.413,8.413,0,0,0,.844-3.864A8.413,8.413,0,0,0,338-14.267a6.076,6.076,0,0,0-2.347-2.547A6.6,6.6,0,0,0,332.231-17.7ZM367.546-.273l-5.037-8.07h-2.318v8.07h-3.263v-20.2h7.126a7.379,7.379,0,0,1,5.252,1.688,5.853,5.853,0,0,1,1.789,4.464,5.685,5.685,0,0,1-1.331,3.892,6.338,6.338,0,0,1-3.849,1.946l5.294,8.214Zm-7.355-10.389H363.8q3.949,0,3.949-3.491a3.441,3.441,0,0,0-.959-2.59,4.161,4.161,0,0,0-2.991-.93h-3.606Zm38.292-9.816v2.633h-5.638V-.273h-3.291V-17.845h-5.609v-2.633ZM425.642-5.653a5.545,5.545,0,0,1-.715,2.762,5.2,5.2,0,0,1-2.175,2.046,7.57,7.57,0,0,1-3.577.773,8.949,8.949,0,0,1-3.692-.73,6.424,6.424,0,0,1-2.6-2.046,5.809,5.809,0,0,1-1.116-3.034h3.491a3.582,3.582,0,0,0,1.13,2.261,3.67,3.67,0,0,0,2.647.944,3.148,3.148,0,0,0,2.3-.8,2.763,2.763,0,0,0,.816-2.061,2.651,2.651,0,0,0-.6-1.789,4.214,4.214,0,0,0-1.488-1.1q-.887-.4-2.433-.916a21.2,21.2,0,0,1-3.077-1.2,5.6,5.6,0,0,1-2.018-1.746,5,5,0,0,1-.83-3,5.126,5.126,0,0,1,.8-2.862,5.209,5.209,0,0,1,2.289-1.9,8.263,8.263,0,0,1,3.434-.673,7.516,7.516,0,0,1,4.908,1.488,5.608,5.608,0,0,1,2.075,3.892h-3.52a3.432,3.432,0,0,0-1.073-1.96,3.361,3.361,0,0,0-2.39-.816,3.3,3.3,0,0,0-2.2.7,2.494,2.494,0,0,0-.83,2.018,2.536,2.536,0,0,0,.572,1.7,3.979,3.979,0,0,0,1.445,1.059q.873.386,2.39.9a20.994,20.994,0,0,1,3.134,1.216A5.677,5.677,0,0,1,424.8-8.744,5.177,5.177,0,0,1,425.642-5.653Z"
            transform="translate(407 241)" fill="#afafaf" />
    </g>
</svg>